<svg xmlns="http://www.w3.org/2000/svg" width="512" height="512" fill="none"><rect width="512" height="512" fill="url(#a)" rx="64"/><path fill="#fff" fill-rule="evenodd" d="M161 96c-17.673 0-32 14.327-32 32v256c0 17.673 14.327 32 32 32h190c17.673 0 32-14.327 32-32V162c0-13.044-7.805-24.266-19-29.249V128c0-17.673-14.327-32-32-32H161Zm5 286h166c17.673 0 32-14.327 32-32V141.822c6.619 4.273 11 11.714 11 20.178v222c0 13.255-10.745 24-24 24H166c-7.18 0-13-5.82-13-13s5.82-13 13-13Zm92-230v38a5 5 0 0 0 5 5h38a5 5 0 0 1 5 5v14a5 5 0 0 1-5 5h-38a5 5 0 0 0-5 5v102a5 5 0 0 1-5 5h-14a5 5 0 0 1-5-5V224a5 5 0 0 0-5-5h-38a5 5 0 0 1-5-5v-14a5 5 0 0 1 5-5h38a5 5 0 0 0 5-5v-38a5 5 0 0 1 5-5h14a5 5 0 0 1 5 5Z" clip-rule="evenodd"/><path fill="#fff" d="M168 395h33v41l-16.5-10-16.5 10v-41Z"/><defs><linearGradient id="a" x1="464.5" x2="51" y1="47.5" y2="461" gradientUnits="userSpaceOnUse"><stop stop-color="#ECD0A9"/><stop offset="1" stop-color="#9E8370"/></linearGradient></defs></svg>