<svg xmlns="http://www.w3.org/2000/svg" width="448" height="448" fill="none"><path fill="#DC362E" d="M115 375a4 4 0 0 1 4-4h53a4 4 0 0 1 4 4v65.839c0 3.13-3.432 5.048-6.097 3.407l-22.306-13.735a3.999 3.999 0 0 0-4.194 0l-22.306 13.735c-2.665 1.641-6.097-.277-6.097-3.407V375Z"/><path fill="url(#a)" d="M365 352c0 26.51-21.49 48-48 48H91a8 8 0 0 1-8-8V56a8 8 0 0 1 8-8h226c26.51 0 48 21.49 48 48v256Z"/><path fill="#D59C15" fill-rule="evenodd" d="M231.875 136.125a8 8 0 0 0-16 0V181H171a8 8 0 0 0 0 16h44.875v115.375a8 8 0 0 0 16 0V197h44.875a8 8 0 0 0 0-16h-44.875v-44.875Z" clip-rule="evenodd"/><defs><linearGradient id="a" x1="224" x2="224" y1="48" y2="400" gradientUnits="userSpaceOnUse"><stop/><stop offset="1"/></linearGradient></defs></svg>